<?xml version="1.0" encoding="UTF-8"?><svg xmlns="http://www.w3.org/2000/svg" xmlns:xlink="http://www.w3.org/1999/xlink" fill-opacity="1" color-rendering="auto" color-interpolation="auto" text-rendering="auto" stroke="black" stroke-linecap="square" width="398" stroke-miterlimit="10" shape-rendering="auto" stroke-opacity="1" fill="black" stroke-dasharray="none" font-weight="normal" stroke-width="1" height="118" font-family="'Dialog'" font-style="normal" stroke-linejoin="miter" font-size="12px" stroke-dashoffset="0" image-rendering="auto">
  <!--Generated by ySVG 2.5-->
  <defs id="genericDefs"/>
  <g>
    <defs id="defs1">
      <linearGradient x1="151" gradientUnits="userSpaceOnUse" x2="231" y1="246" y2="286" id="linearGradient1" spreadMethod="reflect">
        <stop stop-opacity="1" stop-color="rgb(232,238,247)" offset="0%"/>
        <stop stop-opacity="1" stop-color="rgb(183,201,227)" offset="100%"/>
      </linearGradient>
      <linearGradient x1="261" gradientUnits="userSpaceOnUse" x2="341" y1="246" y2="286" id="linearGradient2" spreadMethod="reflect">
        <stop stop-opacity="1" stop-color="rgb(232,238,247)" offset="0%"/>
        <stop stop-opacity="1" stop-color="rgb(183,201,227)" offset="100%"/>
      </linearGradient>
      <linearGradient x1="371" gradientUnits="userSpaceOnUse" x2="451" y1="246" y2="286" id="linearGradient3" spreadMethod="reflect">
        <stop stop-opacity="1" stop-color="rgb(232,238,247)" offset="0%"/>
        <stop stop-opacity="1" stop-color="rgb(183,201,227)" offset="100%"/>
      </linearGradient>
      <linearGradient x1="271" gradientUnits="userSpaceOnUse" x2="331" y1="251" y2="281" id="linearGradient4" spreadMethod="reflect">
        <stop stop-opacity="1" stop-color="rgb(232,238,247)" offset="0%"/>
        <stop stop-opacity="1" stop-color="rgb(183,201,227)" offset="100%"/>
      </linearGradient>
      <clipPath clipPathUnits="userSpaceOnUse" id="clipPath1">
        <path d="M0 0 L398 0 L398 118 L0 118 L0 0 Z"/>
      </clipPath>
      <clipPath clipPathUnits="userSpaceOnUse" id="clipPath2">
        <path d="M68 223 L466 223 L466 341 L68 341 L68 223 Z"/>
      </clipPath>
    </defs>
    <g fill="white" text-rendering="geometricPrecision" shape-rendering="geometricPrecision" transform="translate(-68,-223)" stroke="white">
      <rect x="68" width="398" height="118" y="223" clip-path="url(#clipPath2)" stroke="none"/>
    </g>
    <g fill="url(#linearGradient1)" text-rendering="geometricPrecision" shape-rendering="geometricPrecision" transform="matrix(1,0,0,1,-68,-223)" stroke="url(#linearGradient1)">
      <circle r="20" clip-path="url(#clipPath2)" cx="191" cy="266" stroke="none"/>
    </g>
    <g text-rendering="geometricPrecision" stroke-miterlimit="1.45" shape-rendering="geometricPrecision" transform="matrix(1,0,0,1,-68,-223)" stroke-linecap="butt">
      <circle fill="none" r="20" clip-path="url(#clipPath2)" cx="191" cy="266"/>
      <text x="184.3262" xml:space="preserve" y="270.7139" clip-path="url(#clipPath2)" font-family="sans-serif" stroke="none">q0</text>
    </g>
    <g fill="url(#linearGradient2)" text-rendering="geometricPrecision" shape-rendering="geometricPrecision" transform="matrix(1,0,0,1,-68,-223)" stroke="url(#linearGradient2)">
      <circle r="20" clip-path="url(#clipPath2)" cx="301" cy="266" stroke="none"/>
    </g>
    <g text-rendering="geometricPrecision" stroke-miterlimit="1.45" shape-rendering="geometricPrecision" transform="matrix(1,0,0,1,-68,-223)" stroke-linecap="butt">
      <circle fill="none" r="20" clip-path="url(#clipPath2)" cx="301" cy="266"/>
      <text x="294.3262" xml:space="preserve" y="270.7139" clip-path="url(#clipPath2)" font-family="sans-serif" stroke="none">q1</text>
    </g>
    <g fill="url(#linearGradient3)" text-rendering="geometricPrecision" shape-rendering="geometricPrecision" transform="matrix(1,0,0,1,-68,-223)" stroke="url(#linearGradient3)">
      <circle r="20" clip-path="url(#clipPath2)" cx="411" cy="266" stroke="none"/>
    </g>
    <g text-rendering="geometricPrecision" stroke-miterlimit="1.45" shape-rendering="geometricPrecision" transform="matrix(1,0,0,1,-68,-223)" stroke-linecap="butt">
      <circle fill="none" r="20" clip-path="url(#clipPath2)" cx="411" cy="266"/>
      <text x="404.3262" xml:space="preserve" y="270.7139" clip-path="url(#clipPath2)" font-family="sans-serif" stroke="none">q2</text>
    </g>
    <g fill="url(#linearGradient4)" text-rendering="geometricPrecision" shape-rendering="geometricPrecision" transform="matrix(1,0,0,1,-68,-223)" stroke="url(#linearGradient4)">
      <circle r="15" clip-path="url(#clipPath2)" cx="301" cy="266" stroke="none"/>
    </g>
    <g text-rendering="geometricPrecision" stroke-miterlimit="1.45" shape-rendering="geometricPrecision" transform="matrix(1,0,0,1,-68,-223)" stroke-linecap="butt">
      <circle fill="none" r="15" clip-path="url(#clipPath2)" cx="301" cy="266"/>
      <text x="294.3262" xml:space="preserve" y="270.7139" clip-path="url(#clipPath2)" font-family="sans-serif" stroke="none">q1</text>
    </g>
    <g text-rendering="geometricPrecision" stroke-miterlimit="1.45" shape-rendering="geometricPrecision" transform="matrix(1,0,0,1,-68,-223)" stroke-linecap="butt">
      <path fill="none" d="M101 266 L83 266 L122 266 L162.9814 266" clip-path="url(#clipPath2)"/>
    </g>
    <g text-rendering="geometricPrecision" stroke-miterlimit="1.45" shape-rendering="geometricPrecision" transform="matrix(1,0,0,1,-68,-223)" stroke-linecap="butt">
      <path d="M170.9814 266 L158.9814 261 L161.9814 266 L158.9814 271 Z" stroke="none" clip-path="url(#clipPath2)"/>
      <text x="107.6054" xml:space="preserve" y="253.6909" clip-path="url(#clipPath2)" font-family="sans-serif" stroke="none">start</text>
      <path fill="none" d="M211.0073 266 L273.0065 266" clip-path="url(#clipPath2)"/>
      <path d="M281.0065 266 L269.0065 261 L272.0065 266 L269.0065 271 Z" clip-path="url(#clipPath2)" stroke="none"/>
      <text x="242.6631" xml:space="preserve" y="300.7139" clip-path="url(#clipPath2)" font-family="sans-serif" stroke="none">1</text>
      <path fill="none" d="M316.2271 253.0456 L328.5 245.375 L342.25 240.2188 L356 238.5 L369.75 240.2188 L383.5 245.375 L388.989 248.8056" clip-path="url(#clipPath2)"/>
      <path d="M395.7729 253.0456 L388.2469 242.4456 L388.141 248.2756 L382.947 250.9256 Z" clip-path="url(#clipPath2)" stroke="none"/>
      <text x="354.3674" xml:space="preserve" y="273.4008" clip-path="url(#clipPath2)" font-family="sans-serif" stroke="none">0,1</text>
      <path fill="none" d="M395.7729 278.9544 L383.5 286.625 L369.75 291.7812 L356 293.5 L342.25 291.7812 L328.5 286.625 L323.011 283.1944" clip-path="url(#clipPath2)"/>
      <path d="M316.2271 278.9544 L323.7531 289.5544 L323.859 283.7244 L329.053 281.0744 Z" clip-path="url(#clipPath2)" stroke="none"/>
      <text x="373.5795" xml:space="preserve" y="321.2967" clip-path="url(#clipPath2)" font-family="sans-serif" stroke="none">1</text>
    </g>
  </g>
</svg>
